<svg width="40" height="26" viewBox="0 0 40 26" fill="none" xmlns="http://www.w3.org/2000/svg">
<path d="M16.793 11.6456H16.5764L17.0576 11.376C18.0523 10.8528 18.8294 9.98269 19.247 8.92439C19.6239 7.81454 19.7231 6.62642 19.5357 5.46763C19.425 4.44178 19.0447 3.46535 18.435 2.64126C17.8253 1.81718 17.0087 1.17596 16.0713 0.785178C14.8561 0.252153 13.5447 -0.0151112 12.2218 0.000659428H0V25.1782H11.1632C12.2274 25.1796 13.2897 25.0894 14.339 24.9085C15.4841 24.7437 16.5706 24.2895 17.4993 23.5872C18.428 22.885 19.1694 21.957 19.656 20.8879C20.3851 19.3669 20.5967 17.6419 20.2575 15.9848C20.1145 15.0116 19.7176 14.0954 19.1081 13.332C18.4986 12.5687 17.699 11.9862 16.793 11.6456ZM5.79811 4.38895H10.6099C11.422 4.38812 12.2308 4.49525 13.0158 4.70763C13.4426 4.8102 13.8264 5.04831 14.1118 5.38761C14.3972 5.7269 14.5695 6.14983 14.6037 6.59535C14.7022 7.09705 14.7022 7.61367 14.6037 8.11537C14.5345 8.39876 14.4064 8.66366 14.2278 8.89209C14.0493 9.12053 13.8247 9.30713 13.5691 9.43924C12.8245 9.82247 11.997 10.008 11.1632 9.97857H5.75001L5.79811 4.38895ZM15.1089 18.4608C15.0007 19.0558 14.709 19.6001 14.2763 20.0146C13.8436 20.429 13.2925 20.692 12.703 20.7654C12.18 20.8719 11.6485 20.9293 11.1151 20.9369H5.75001V14.2687H11.476C12.0908 14.2702 12.701 14.378 13.2805 14.5874C13.7962 14.7539 14.2487 15.0789 14.5761 15.5178C14.9034 15.9567 15.0895 16.488 15.109 17.0389C15.1729 17.5107 15.1729 17.9891 15.1089 18.4608ZM39.9856 16.8182C40.0096 16.7693 40.0096 16.7202 39.9376 16.7693V14.0481C39.915 12.8018 39.6363 11.5742 39.1196 10.4443C38.338 8.74467 36.9668 7.39991 35.2702 6.66908C33.4047 5.88759 31.3547 5.68293 29.3758 6.0806C27.8722 6.29301 26.4626 6.94947 25.3211 7.96892C24.1795 8.98838 23.3559 10.3262 22.952 11.8172C22.2495 14.1041 22.1499 16.5391 22.6633 18.8777C22.9035 20.197 23.5038 21.4206 24.3955 22.408C25.5339 23.5889 26.9633 24.4358 28.5337 24.8595C30.0462 25.2806 31.63 25.3642 33.177 25.1047C35.1201 24.8619 36.9088 23.9026 38.2053 22.408C38.8517 21.7087 39.3367 20.8711 39.6248 19.9564C39.7614 19.747 39.8211 19.4952 39.7931 19.2454H35.0777C35.0275 19.2412 34.9773 19.2531 34.9342 19.2795C34.891 19.3059 34.857 19.3455 34.8371 19.3925C34.6003 19.8657 34.2604 20.2774 33.8434 20.5961C33.4263 20.9148 32.9433 21.132 32.4312 21.2311C31.7169 21.3811 30.9802 21.3811 30.2659 21.2311C29.6521 21.1371 29.0703 20.8913 28.5712 20.5152C28.0722 20.1392 27.6711 19.6443 27.403 19.0739C27.192 18.6083 27.054 18.1119 26.994 17.6028V16.8183L39.9856 16.8182ZM27.2826 13.2881C27.3858 12.8957 27.5144 12.5108 27.6675 12.1358C27.9225 11.4934 28.3572 10.9417 28.9176 10.5494C29.4781 10.1571 30.1394 9.94143 30.8193 9.92936C31.5299 9.85958 32.2468 9.96032 32.9124 10.2235C33.5158 10.4587 34.0451 10.8567 34.4434 11.375C34.8418 11.8932 35.0943 12.5121 35.1739 13.1654V13.6803L27.2826 13.7538C27.2743 13.5987 27.2743 13.4433 27.2826 13.2882V13.2881ZM36.1122 1.03025H26.1038V3.97225L36.1122 3.94779V1.03025Z" fill="url(#paint0_linear_84_29)"/>
<defs>
<linearGradient id="paint0_linear_84_29" x1="20" y1="0" x2="20" y2="25.2522" gradientUnits="userSpaceOnUse">
<stop stop-color="#25B9E9"/>
<stop offset="1" stop-color="#0085FF"/>
</linearGradient>
</defs>
</svg>
