<svg width="40" height="40" viewBox="0 0 40 40" fill="none" xmlns="http://www.w3.org/2000/svg">
<path d="M20 0C17.3736 0 14.7728 0.527138 12.3463 1.55132C9.91982 2.57549 7.71504 4.07666 5.85786 5.96909C2.10714 9.79103 0 14.9747 0 20.3797C0 29.3876 5.74 37.03 13.68 39.7405C14.68 39.9035 15 39.2718 15 38.7215C15 38.2528 15 36.9689 15 35.2773C9.46 36.5001 8.28 32.5465 8.28 32.5465C7.36 30.1824 6.06 29.5506 6.06 29.5506C4.24 28.2871 6.2 28.3279 6.2 28.3279C8.2 28.4705 9.26 30.427 9.26 30.427C11 33.5247 13.94 32.6076 15.08 32.1185C15.26 30.7938 15.78 29.8971 16.34 29.3876C11.9 28.8781 7.24 27.1254 7.24 19.3608C7.24 17.0986 8 15.2848 9.3 13.8378C9.1 13.3284 8.4 11.2089 9.5 8.4576C9.5 8.4576 11.18 7.90734 15 10.5363C16.58 10.088 18.3 9.8638 20 9.8638C21.7 9.8638 23.42 10.088 25 10.5363C28.82 7.90734 30.5 8.4576 30.5 8.4576C31.6 11.2089 30.9 13.3284 30.7 13.8378C32 15.2848 32.76 17.0986 32.76 19.3608C32.76 27.1458 28.08 28.8577 23.62 29.3672C24.34 29.999 25 31.2422 25 33.1375V38.7215C25 39.2718 25.32 39.9239 26.34 39.7405C34.28 37.0096 40 29.3876 40 20.3797C40 17.7034 39.4827 15.0533 38.4776 12.5808C37.4725 10.1082 35.9993 7.86152 34.1421 5.96909C32.285 4.07666 30.0802 2.57549 27.6537 1.55132C25.2272 0.527138 22.6264 0 20 0Z" fill="url(#paint0_linear_84_25)"/>
<defs>
<linearGradient id="paint0_linear_84_25" x1="20" y1="0" x2="20" y2="39.7721" gradientUnits="userSpaceOnUse">
<stop stop-color="#25B9E9"/>
<stop offset="1" stop-color="#0085FF"/>
</linearGradient>
</defs>
</svg>
