<svg width="40" height="34" viewBox="0 0 40 34" fill="none" xmlns="http://www.w3.org/2000/svg">
<path d="M40 3.92229C38.529 4.58648 36.9488 5.03525 35.2876 5.2381C36.9823 4.20412 38.2824 2.5634 38.8954 0.610333C37.31 1.56892 35.5536 2.26541 33.6845 2.6388C32.1871 1.01603 30.0555 0 27.6949 0C23.1639 0 19.4891 3.74458 19.4891 8.36516C19.4891 9.01858 19.5631 9.65404 19.7005 10.268C12.8777 9.91792 6.83344 6.58801 2.78516 1.52942C2.0805 2.76804 1.67533 4.20412 1.67533 5.73355C1.67533 8.63443 3.12516 11.196 5.32546 12.6949C3.97956 12.6501 2.7147 12.2749 1.60838 11.6484V11.7561C1.60838 15.8076 4.43583 19.1878 8.19167 19.9561C7.5011 20.1464 6.77706 20.2469 6.03012 20.2469C5.50163 20.2469 4.98547 20.1966 4.48516 20.0997C5.52982 23.4206 8.55985 25.8404 12.1519 25.9051C9.34203 28.1489 5.80287 29.4863 1.95895 29.4863C1.29657 29.4863 0.642999 29.4468 0 29.3696C3.63252 31.7445 7.94504 33.1267 12.5782 33.1267C27.6755 33.1267 35.9288 20.3851 35.9288 9.33451C35.9288 8.97549 35.92 8.61288 35.9042 8.25386C37.5073 7.07269 38.899 5.6025 39.9965 3.92768L40 3.92229Z" fill="url(#paint0_linear_84_27)"/>
<defs>
<linearGradient id="paint0_linear_84_27" x1="20" y1="0" x2="20" y2="33.1267" gradientUnits="userSpaceOnUse">
<stop stop-color="#25B9E9"/>
<stop offset="1" stop-color="#0085FF"/>
</linearGradient>
</defs>
</svg>
